<svg xmlns="http://www.w3.org/2000/svg" width="1362.58" height="258.47" viewBox="0 0 1362.58 258.47"><title>pbm-logo</title><g style="isolation:isolate"><path d="M126,199.09c-2.75-4.36-6.13-8.32-9.22-12.46-.49-.66-1.35-1.19-.44-2.16a29.76,29.76,0,0,0,7.3-15.29c1.54-8.37,1.84-16.82-.84-25-4.73-14.39-14.28-24.72-28.12-30.71C67.55,101.77,40.31,90.31,13.11,78.75a23.07,23.07,0,0,0-3.63-1.21c-4.35-1-8,1.16-9.1,5.45A17.58,17.58,0,0,0,.1,87.17q0,27.81,0,55.62C.09,161.2.29,179.62,0,198c-.14,9.23,6.64,16.73,13.13,19.3,30.74,12.22,61.43,24.58,92.15,36.85a47.19,47.19,0,0,0,7.12,2.28c13.53,3,21.44-4.65,22.74-16.92.56-5.33,0-10.83-.54-16.2A56.13,56.13,0,0,0,126,199.09ZM111.2,227.9a2.81,2.81,0,0,1-3.58,2.7,25.67,25.67,0,0,1-3.18-1.15Q65.53,213.7,26.62,198a3,3,0,0,1-1.88-2.8q.06-42.16,0-84.34c0-.58.08-1.16.15-2,.86.31,1.48.5,2.07.75q33.71,14.18,67.4,28.33c4,1.69,6.11,4.47,5.94,8.84a75.87,75.87,0,0,1-.51,8.54A11.71,11.71,0,0,1,86,164.9a38.12,38.12,0,0,1-6.86-2.05c-14-5.74-27.92-11.56-41.87-17.35-.66-.27-1.33-.48-2.27-.81v3.55c0,6.41,0,12.81,0,19.21a2.72,2.72,0,0,0,2,3q26.4,10.77,52.76,21.65c10.26,4.23,17.39,11.43,20.55,22.27C111.57,218.79,111.44,223.36,111.2,227.9Zm176-144.72c0-5.61-4.42-8.43-9.67-6.37a18.25,18.25,0,0,0-10.25,9.88Q243.69,138,220,189.25a17.88,17.88,0,0,1-1.21,1.93l-5.2-7q-20.9-28.25-41.77-56.5a6.51,6.51,0,0,0-7.39-2.67A18,18,0,0,0,152,141.52V258.73a23.62,23.62,0,0,0,3.93-1.6A57.65,57.65,0,0,1,169,251.86c2.82-.72,3.7-1.35,3.69-3.54q-.1-37.92-.05-75.85c0-.56.08-1.13.12-1.69a3.23,3.23,0,0,1,1.55,1.38q17.47,29.31,34.92,58.62c2,3.3,4.51,4.3,8.2,3.19A15.82,15.82,0,0,0,228,224.32Q246.44,179,264.8,133.6c.2-.49.46-1,.68-1.44l.51.16v80.41a5.5,5.5,0,0,0,1.09-.18c6.4-2.56,12.81-5.1,19.17-7.75a2.31,2.31,0,0,0,.95-1.81Q287.27,143.08,287.23,83.18ZM48.11,62.34a12.82,12.82,0,0,0,2.44,1.92c3.79,2.06,7.51,4.32,11.47,6q50.37,21.19,100.85,42.16a4.51,4.51,0,0,0,3-.06c3.38-1.3,6.68-2.8,10-4.23l12.55-5.44c-2.54-1-4.61-1.83-6.65-2.7Q159.5,90.4,137.18,80.81q-25.7-11-51.4-22A23.55,23.55,0,0,1,81,56.19c-2-1.46-1.94-3.35,0-4.9A17.83,17.83,0,0,1,84.69,49C103.23,40.33,121.82,31.76,140.3,23a54.42,54.42,0,0,1,26.08-5.09c13.29.55,25.12,5.65,36.35,12.21,6.56,3.84,6.59,9.64.46,14.21a38.17,38.17,0,0,1-7,4.19c-17.82,8.07-35.68,16-53.53,24-.49.22-1,.49-1.77.9.67.34,1,.52,1.3.66,7.22,3.1,14.45,6.17,21.65,9.32a3.91,3.91,0,0,0,3.45-.08c12.2-5.42,24.44-10.72,36.62-16.17,8.62-3.85,17.26-7.66,25.69-11.89a30.07,30.07,0,0,0,13-12c2.65-4.68,2.94-9.57-.17-14A30.13,30.13,0,0,0,235,21.56a129.58,129.58,0,0,0-31.17-15C188.67,1.39,173-.24,157.13.4,144.32.91,131.69,2.92,120,8.27,98.88,17.92,78,28,57.07,38.06a41,41,0,0,0-9,6.21C42,49.67,42.09,56.82,48.11,62.34Z" transform="translate(0 -0.26)" fill="#76ba43" fill-rule="evenodd"/></g><path d="M414.67,85.17q9.22,9.22,9.23,27.08t-9.23,27.07q-9.23,9.23-26,9.23H368.1v34.2H347.25V76h41.4Q405.43,76,414.67,85.17Zm-11.62,27.08q0-17.7-15.45-17.7H368.1V129.8h19.5q7.48,0,11.47-4.05T403.05,112.25Z" transform="translate(0 -0.26)"/><path d="M517.34,152q0,14.85-8,22.8t-22.43,7.95h-14.4q-17.7,0-25.12-6.15t-7.43-21.3V76h45.15q15.3,0,23,7.65t7.72,21.6a22.9,22.9,0,0,1-4.12,13.8,24.86,24.86,0,0,1-9.08,8.1Q517.34,134,517.34,152Zm-33.9-34.35q11.55,0,11.55-11.55T483.44,94.55H460.79v23.1ZM496.49,151q0-7.2-2.55-10.88t-9.15-3.67h-24v16.8q0,6.15,3.08,8.55t10.12,2.4h10.8Q496.49,164.15,496.49,151Z" transform="translate(0 -0.26)"/><path d="M616,119l-19.2,40.5q-4.2,8.1-10.42,8.1T576,159.05L556.49,119v63.75H535.64V76h20.55l30.15,61.65,30-61.65h20.55v106.8H616Z" transform="translate(0 -0.26)"/><path d="M711.44,182.75H690.59V76h20.85Z" transform="translate(0 -0.26)"/><path d="M818.09,76v96a12.63,12.63,0,0,1-3,8.47A9,9,0,0,1,808,184q-10.35,0-16.95-12l-36.9-57.75v68.55H733.34V76h20.1l43.8,69.9V76Z" transform="translate(0 -0.26)"/><path d="M908.54,94.55H870.89q-6.6,0-9.23,2.55T859,106V120.8h39.15l-1.5,18.6H859v43.35H838.19v-85q0-11.85,5.17-16.8t17.78-5h47.4Z" transform="translate(0 -0.26)"/><path d="M1003.49,124.4v8.1q0,26.85-10.13,39t-32.47,12.15q-22.35,0-32.33-12.15t-10-39.45v-7.8q0-24.9,10.12-37t32.1-12.15q22,0,32.33,12.3T1003.49,124.4Zm-20.85,7.65V126.5q0-14.4-3.6-23-4.2-9.9-18-9.9t-18.15,9.9q-3.45,8.1-3.45,23v5.55q0,19.35,5.4,26.1a16.6,16.6,0,0,0,6.22,4.87,22.27,22.27,0,0,0,9.9,2,22.52,22.52,0,0,0,9.83-2,17.53,17.53,0,0,0,6.3-4.8,20.08,20.08,0,0,0,3.45-7.5Q982.64,143.45,982.64,132.05Z" transform="translate(0 -0.26)"/><path d="M1089.74,94.55h-28.65v88.2h-20.85V94.55h-28.5V76h78Z" transform="translate(0 -0.26)"/><path d="M1174.79,182.75H1137q-18,0-25.28-6.23t-7.27-22V76h70.35v18.6h-49.5v25h34.65l-1.5,18.6h-33.15v14.85q0,6.3,2.85,8.7c1.9,1.6,5.34,2.4,10.35,2.4h36.3Z" transform="translate(0 -0.26)"/><path d="M1247.69,141.35H1267q0,20.4-10.21,31.35t-28.79,11q-40.95,0-41-48.15v-9q0-37.95,21-47.55,8.25-3.9,20-3.9,17.1,0,27.82,9.37t10.72,27.08h-19.5q-1.65-8.85-5.84-13.35c-2.81-3-7.2-4.5-13.2-4.5q-10.51,0-15.6,6.6-3.6,4.65-4.2,15.9c-.21,2.4-.3,5.65-.3,9.75v9.3q0,17.25,4.8,23.55,5,6.3,15.37,6.3t14.4-5.78Q1246.49,153.49,1247.69,141.35Z" transform="translate(0 -0.26)"/><path d="M1362.58,182.75h-20.84v-43.2h-39.16v43.2h-20.84V76h20.84V121.1h39.16V76h20.84Z" transform="translate(0 -0.26)"/></svg>